<?xml version="1.0" encoding="utf-8"?>
<!-- Generator: Adobe Illustrator 21.0.0, SVG Export Plug-In . SVG Version: 6.00 Build 0)  -->
<svg version="1.1" id="_x2014_ÎÓÈ_1" xmlns="http://www.w3.org/2000/svg" xmlns:xlink="http://www.w3.org/1999/xlink" x="0px"
	 y="0px" viewBox="0 0 1275.6 216" style="enable-background:new 0 0 1275.6 216;" xml:space="preserve">
<style type="text/css">
	.st0{fill-rule:evenodd;clip-rule:evenodd;fill:#00D1B2;}
	.st1{fill:#00D1B2;}
</style>
<path class="st0" d="M598.3,47.8c6.3-4.4,17.5-7.7,23.3-9.4c9.9-2.9,22.5-7,31.2-12.7c1.3-0.8,5-3.5,5.7-5.2c0-2.3,1.4-4.3,3.7-5
	c2.5-0.8,5.2,0.3,6.4,2.7c1.8,3.7,3.2,9,4,13c2.6,12.2,3,25.3,2.5,37.7c-1,21.6-16.1,30.4-34.2,29.9c3,11.3,4.7,23.3,6.1,34.8
	c0,0.1,0,0.1,0,0.1c2.1,23.1-5.1,45.3-23.6,59.9c-3,2.4-6.4,4.1-10.2,5.2c-8.7,2.4-18.1,0.7-26.8-1.1c-8.9-1.8-17.9-4-27.1-4
	c-9.2,0-18.2,2.2-27.1,4.1c-8.7,1.8-18.1,3.5-26.8,1.1c-3.7-1-7.1-2.8-10.2-5.2c-18.5-14.6-25.7-36.9-23.5-60c0-0.1,0-0.1,0-0.2
	c1.4-11.5,3.2-23.5,6.4-34.8c-17.8,0.1-32.2-8.8-33.2-29.9c-0.6-12.4-0.1-25.5,2.5-37.7c0.8-4,2.2-9.3,4-13c1.2-2.4,3.8-3.5,6.4-2.7
	c2.2,0.7,3.7,2.8,3.7,5c0.7,1.7,4.4,4.4,5.7,5.2c8.7,5.7,21.3,9.8,31.2,12.7c5.8,1.7,16.9,5,23.2,9.4c12-4.2,25.2-5.5,37.8-5.5
	C572.2,42.2,585.9,43.5,598.3,47.8L598.3,47.8z M547,160.3L547,160.3c-1.3,0.8-2.8,1.3-4.5,1.4c-0.7,0-1.2,0.6-1.2,1.3
	c0,0.7,0.5,1.2,1.2,1.3c0.3,0,0.5,0,0.8,0c7.6,0,13-6.8,13.6-14c0-0.4,0.1-0.8,0.1-1.2l0-0.1l0-0.1c0-6-3.2-12.1-8.9-14.5
	c-1.5-0.6-3.1-1-4.7-1c-0.3,0-0.5,0-0.8,0c-0.7,0-1.2,0.6-1.2,1.3c0,0.7,0.5,1.2,1.2,1.3c1.8,0.1,3.5,0.7,4.9,1.7
	c-0.7,0-1.5,0.1-2.2,0.4c-4.5,1.5-6.9,6.4-6.9,10.9c0,4.5,2.4,9.4,6.9,10.9C545.9,160.1,546.4,160.2,547,160.3L547,160.3z
	 M572.3,137.8L572.3,137.8c1.4-1,3.1-1.6,4.9-1.7c0.7,0,1.2-0.6,1.2-1.3c0-0.7-0.5-1.2-1.2-1.3c-0.3,0-0.5,0-0.8,0
	c-1.6,0-3.2,0.3-4.7,1c-5.7,2.4-8.9,8.5-8.9,14.5l0,0.1l0,0.1c0,0.4,0,0.8,0.1,1.3c0.6,7.2,5.9,14,13.6,14c0.3,0,0.5,0,0.8,0
	c0.7,0,1.2-0.6,1.2-1.3c0-0.7-0.5-1.2-1.2-1.3c-1.6-0.1-3.1-0.6-4.5-1.4c0.6,0,1.2-0.2,1.7-0.3c4.5-1.5,6.9-6.4,6.9-10.9
	c0-4.5-2.4-9.4-6.9-10.9C573.8,137.9,573.1,137.8,572.3,137.8L572.3,137.8z M587.6,97.6L587.6,97.6c-2.2,0-3.9,2.1-3.9,4.7
	c0,2.6,1.8,4.7,3.9,4.7c2.2,0,3.9-2.1,3.9-4.7C591.5,99.7,589.8,97.6,587.6,97.6L587.6,97.6z M530.9,97.6L530.9,97.6
	c-2.2,0-3.9,2.1-3.9,4.7c0,2.6,1.8,4.7,3.9,4.7c2.2,0,3.9-2.1,3.9-4.7C534.8,99.7,533.1,97.6,530.9,97.6L530.9,97.6z M571.8,110.8
	L571.8,110.8c3.5,1.7,6.8,4.2,10.1,7.1c7.8,6.9,15.3,15.7,16.5,26.5c1.2,10.6-2.6,20.6-10.7,27.6c-7.8,6.7-17.9,10.4-28.1,11.1
	l-0.4,0l-0.4,0c-10.2-0.7-20.3-4.4-28.1-11.1c-8.1-7-11.9-17-10.7-27.6c1.2-10.7,8.7-19.6,16.5-26.5c3.3-3,6.6-5.4,10.1-7.1
	c-8-16.1-21.2-26.6-36-26.6c-10,0-19.2,4.8-26.6,12.8c-3.3,10.9-5.5,23.3-7.2,37.1c-2.2,23.9,6.3,43.3,21.6,55.3
	c12.1,9.6,27.8,3.6,45.3,0.5l0,0c5-0.9,10.2-1.6,15.5-1.6c5.3,0,10.4,0.7,15.5,1.6l0,0c17.5,3.1,33.2,9.1,45.3-0.5
	c15.3-12.1,23.8-31.4,21.6-55.3c-1.7-13.7-3.6-25.9-6.7-36.6c-7.5-8.4-16.9-13.3-27.1-13.3C593,84.2,579.8,94.7,571.8,110.8
	L571.8,110.8z M551.7,114.9L551.7,114.9l-0.5,0.2l-0.4,0.1l-1.5,0.6c-3.1,1.4-5.9,3.6-9,6.3c-6.4,5.7-13.6,13.5-14.7,22.9
	c-1,9.3,2.6,17.3,8.8,22.7c6.4,5.5,15.1,9.1,24.8,9.8c9.6-0.6,18.4-4.3,24.8-9.8c6.2-5.4,9.8-13.4,8.8-22.7
	c-1-9.3-8.3-17.2-14.7-22.9c-6.1-5.4-11.2-8.7-18.9-7.9l0,0l0,0C556.4,114,554,114.2,551.7,114.9l0.2-0.1L551.7,114.9L551.7,114.9z
	 M559.3,108.6L559.3,108.6c2.8-0.2,5.4,0,7.8,0.6c0.9-1.8,1.8-3.6,2.9-5.3c6.6-11.1,16.7-20.7,29.6-23.7c2.7-0.6,5.5-1,8.3-1
	c8.9,0,17,3.2,23.8,8.4c-4.6-11.5-11-20.8-20.5-27.5c19.4-9.8,55.7-18.7,52.8-39.4c-0.1-0.2-0.1-0.3-0.1-0.3s1.8,10.6-40.7,23
	c-15,4.4-21.6,7.8-23.7,10.4c-10.4-4.2-23.5-6.3-40.1-6.3c-15.9,0-28.6,2.2-38.8,6.3c-2.2-2.6-8.8-6-23.7-10.3
	c-42.5-12.4-40.7-23-40.7-23s-0.1,0.1-0.1,0.3c-2.8,20.7,33.2,29.5,52.7,39.3c-9.6,6.6-16.2,15.7-20.9,27c6.7-4.9,14.5-7.9,23-7.9
	c2.8,0,5.6,0.3,8.3,1c12.9,3,23,12.6,29.6,23.7c1,1.7,2,3.5,2.9,5.3C553.9,108.5,556.4,108.3,559.3,108.6z"/>
<path class="st1" d="M94.6,16.1h84.3v24.5h-53.3v13.5h50V77h-50v12.6h56.5v24.4H94.6V16.1z M214.6,127.4c18.8,0,33.9,15.2,33.9,33.9
	c0,18.6-15,33.9-33.9,33.9H137c-18.6,0-33.9-15.2-33.9-33.9c0-18.6,15.2-33.9,33.9-33.9H214.6z M137,153.1c-4.6,0-8.2,3.6-8.2,8.2
	c0,4.6,3.6,8.2,8.2,8.2h77.6c4.6,0,8.2-3.6,8.2-8.2c0-4.6-3.6-8.2-8.2-8.2H137z M221.3,53.9V15.1h26.4v100.5h-26.4V77.3h-32.3V53.9
	H221.3z"/>
<path class="st1" d="M277.2,16.1h84.3v24.5h-53.3v13.5h50V77h-50v12.6h56.5v24.4h-87.5V16.1z M397.3,127.4
	c18.8,0,33.9,15.2,33.9,33.9c0,18.6-15,33.9-33.9,33.9h-77.6c-18.6,0-33.9-15.2-33.9-33.9c0-18.6,15.2-33.9,33.9-33.9H397.3z
	 M319.6,153.1c-4.6,0-8.2,3.6-8.2,8.2c0,4.6,3.6,8.2,8.2,8.2h77.6c4.6,0,8.2-3.6,8.2-8.2c0-4.6-3.6-8.2-8.2-8.2H319.6z M403.9,53.9
	V15.1h26.4v100.5h-26.4V77.3h-32.3V53.9H403.9z"/>
<path class="st1" d="M747.6,41.6h-65.5V16.1h95.3v25.5l-21.9,152.6h-29.3L747.6,41.6z M834,81.9h19.4v25.9H834v87.3h-28.5v-180H834
	V81.9z"/>
<path class="st1" d="M909.9,41.8h-45.3V16.1h73.4v25.7l-3.2,21.9h26.4V15.1h26.1v180h-26.1v-51.9h-37.7l-7,50.8h-28.9L909.9,41.8z
	 M927.4,117.3h33.9V89.5h-30.1L927.4,117.3z M1000.5,195.1v-180h26.1v180H1000.5z"/>
<path class="st1" d="M1115.2,196.3v-40.5h-71.2v-25.1h170.5v25.1h-71.2v40.5H1115.2z M1053.9,113.9V14h29.5v29.1h89.2V14h29.5v99.9
	H1053.9z M1083.4,88.2h89.2V69h-89.2V88.2z"/>
</svg>
